<svg xmlns="http://www.w3.org/2000/svg" width="538" height="720" viewBox="0 0 538 720">
  <rect width="538" height="720" rx="24" ry="24" fill="#FFFFFF"/>
  <rect x="0.5" y="0.5" width="537" height="719" rx="24" ry="24" fill="none" stroke="#ECECF0" stroke-width="1"/>
  <rect x="24" y="24" width="155" height="180" rx="12" fill="#E8E8EC"/>
  <rect x="24" y="220" width="135" height="12" rx="6" fill="#B8B8BE"/>
  <rect x="24" y="244" width="145" height="10" rx="5" fill="#D0D0D6"/>
  <rect x="24" y="266" width="125" height="10" rx="5" fill="#D0D0D6"/>
  <rect x="191" y="24" width="155" height="180" rx="12" fill="#E8E8EC"/>
  <rect x="191" y="220" width="128" height="12" rx="6" fill="#B8B8BE"/>
  <rect x="191" y="244" width="142" height="10" rx="5" fill="#D0D0D6"/>
  <rect x="191" y="266" width="138" height="10" rx="5" fill="#D0D0D6"/>
  <rect x="191" y="288" width="120" height="10" rx="5" fill="#D0D0D6"/>
  <rect x="358" y="24" width="155" height="180" rx="12" fill="#E8E8EC"/>
  <rect x="358" y="220" width="140" height="12" rx="6" fill="#B8B8BE"/>
  <rect x="358" y="244" width="150" height="10" rx="5" fill="#D0D0D6"/>
  <rect x="358" y="266" width="130" height="10" rx="5" fill="#D0D0D6"/>
</svg>
